<svg width="115" height="56" viewBox="0 0 115 56" fill="none" xmlns="http://www.w3.org/2000/svg">
<path d="M8.30485 9.64776C8.84527 10.161 9.71948 10.8266 10.9354 11.6605C12.2229 12.5667 13.264 13.3605 14.0667 14.0422C14.8694 14.7238 15.5608 15.5658 16.1489 16.5601C16.737 17.5545 17.0231 18.6771 17.0231 19.9281C17.0231 21.5479 16.6576 22.8791 15.9185 23.9215C15.1873 24.964 14.2416 25.7258 13.0971 26.1989C11.9527 26.672 10.7447 26.9126 9.48106 26.9126C7.39089 26.9126 5.71399 26.5437 4.43446 25.798C3.16288 25.0602 2.24892 24.0258 1.70055 22.7027C1.15218 21.3795 0.874023 19.8078 0.874023 17.9795H7.54984C7.54984 19.3186 7.68495 20.321 7.94721 20.9866C8.20948 21.6522 8.57506 21.9729 9.03601 21.9729C9.29032 21.9729 9.5208 21.8366 9.74333 21.5559C9.96585 21.2753 10.0692 20.8823 10.0692 20.3771C10.0692 19.6153 9.88638 18.9418 9.5208 18.3644C9.15522 17.787 8.69427 17.2818 8.1459 16.8568C7.59753 16.4318 6.83458 15.9026 5.87294 15.2771C4.79209 14.5794 3.93377 13.978 3.29003 13.4568C2.64629 12.9355 2.09792 12.294 1.63697 11.5322C1.17602 10.7704 0.94555 9.86428 0.94555 8.82181C0.94555 7.38641 1.24755 6.13545 1.8595 5.06893C2.47145 4.00241 3.32977 3.18447 4.44241 2.62314C5.55504 2.0538 6.85842 1.77313 8.35253 1.77313C10.1884 1.77313 11.7302 2.13399 12.97 2.86371C14.2098 3.59344 15.1317 4.56374 15.7436 5.76658C16.3476 6.96943 16.6576 8.29256 16.6576 9.72795H9.94201C9.91817 8.78171 9.78306 8.05199 9.54464 7.53877C9.30622 7.03358 8.98832 6.77697 8.5989 6.77697C8.25716 6.77697 7.98695 6.89726 7.78827 7.12179C7.58958 7.35434 7.49421 7.65906 7.49421 8.02793C7.49421 8.6053 7.76442 9.15059 8.30485 9.6638V9.64776Z" fill="#F3E7D3"/>
<path d="M26.155 2.18201V26.4955H19.4395V2.18201H26.155Z" fill="#F3E7D3"/>
<path d="M28.9127 2.18201H38.7596L40.9292 17.394H41.3107L43.3055 2.18201H53.1523V26.4955H47.1282V11.8048H46.4368L44.1956 26.4955H37.8615L35.6203 11.8048H34.9289V26.4955H28.9048V2.18201H28.9127Z" fill="#F3E7D3"/>
<path d="M55.902 2.18201H65.7488L67.9185 17.394H68.2999L70.2947 2.18201H80.1416V26.4955H74.1174V11.8048H73.426L71.1848 26.4955H64.8508L62.6096 11.8048H61.9182V26.4955H55.894V2.18201H55.902Z" fill="#F3E7D3"/>
<path d="M89.6072 2.18201V26.4955H82.8916V2.18201H89.6072ZM94.7014 2.18201V6.87311H85.2679V2.18201H94.7014ZM94.7014 11.7326V16.4237H85.2679V11.7326H94.7014ZM94.7014 21.8044V26.4955H85.2679V21.8044H94.7014Z" fill="#F3E7D3"/>
<path d="M109.182 3.31268C110.366 4.06647 111.232 5.0127 111.796 6.14338C112.361 7.27405 112.639 8.42077 112.639 9.58352V10.5217C112.639 11.7005 112.376 12.8553 111.844 13.9779C111.311 15.1006 110.469 16.0388 109.293 16.7926C108.125 17.5464 106.622 17.9233 104.787 17.9233H104.167V26.5036H97.4512V2.18201H104.787C106.527 2.18201 107.997 2.5589 109.174 3.31268H109.182ZM105.931 8.39671C105.931 7.93161 105.836 7.56274 105.653 7.28207C105.47 7.00141 105.184 6.86509 104.795 6.86509H104.175V13.2241H104.795C105.208 13.2241 105.502 13.0878 105.669 12.8232C105.844 12.5586 105.931 12.1817 105.931 11.6925V8.38869V8.39671ZM109.682 15.1407L112.988 26.5036H106.964L105.279 17.0572L109.682 15.1487V15.1407Z" fill="#F3E7D3"/>
<path d="M8.30485 38.2194C8.84527 38.7326 9.71948 39.3981 10.9354 40.2321C12.2229 41.1383 13.264 41.9321 14.0667 42.6138C14.8694 43.2954 15.5608 44.1374 16.1489 45.1317C16.737 46.1261 17.0231 47.2487 17.0231 48.4997C17.0231 50.1195 16.6576 51.4507 15.9185 52.4931C15.1873 53.5356 14.2416 54.2974 13.0971 54.7705C11.9527 55.2436 10.7447 55.4842 9.48106 55.4842C7.39089 55.4842 5.71399 55.1153 4.43446 54.3696C3.16288 53.6318 2.24892 52.5974 1.70055 51.2743C1.15218 49.9511 0.874023 48.3794 0.874023 46.5511H7.54984C7.54984 47.8902 7.68495 48.8926 7.94721 49.5582C8.20948 50.2238 8.57506 50.5445 9.03601 50.5445C9.29032 50.5445 9.5208 50.4082 9.74333 50.1275C9.96585 49.8469 10.0692 49.4539 10.0692 48.9487C10.0692 48.1869 9.88638 47.5134 9.5208 46.936C9.15522 46.3586 8.69427 45.8534 8.1459 45.4284C7.59753 45.0034 6.83458 44.4742 5.87294 43.8487C4.79209 43.151 3.93377 42.5496 3.29003 42.0284C2.64629 41.5071 2.09792 40.8656 1.63697 40.1038C1.17602 39.342 0.94555 38.4359 0.94555 37.3934C0.94555 35.958 1.24755 34.707 1.8595 33.6405C2.47145 32.574 3.32977 31.7561 4.44241 31.1947C5.55504 30.6254 6.85842 30.3447 8.35253 30.3447C10.1884 30.3447 11.7302 30.7056 12.97 31.4353C14.2098 32.165 15.1317 33.1353 15.7436 34.3382C16.3476 35.541 16.6576 36.8642 16.6576 38.2996H9.94201C9.91817 37.3533 9.78306 36.6236 9.54464 36.1104C9.30622 35.6052 8.98832 35.3486 8.5989 35.3486C8.25716 35.3486 7.98695 35.4689 7.78827 35.6934C7.58958 35.9259 7.49421 36.2307 7.49421 36.5995C7.49421 37.1769 7.76442 37.7222 8.30485 38.2354V38.2194Z" fill="#F3E7D3"/>
<path d="M32.799 30.7536V35.4447H18.4062V30.7536H32.799ZM28.9842 30.7536V55.0671H22.2687V30.7536H28.9842Z" fill="#F3E7D3"/>
<path d="M38.3303 54.2493C37.1699 53.4955 36.3355 52.5573 35.8189 51.4346C35.3023 50.312 35.04 49.1572 35.04 47.9784V30.7457H41.7556V48.3233C41.7556 48.8124 41.8271 49.1893 41.9781 49.4539C42.1291 49.7186 42.3834 49.8549 42.749 49.8549C43.1146 49.8549 43.3769 49.7186 43.5199 49.4539C43.663 49.1893 43.7424 48.8124 43.7424 48.3233V30.7457H50.458V47.9784C50.458 49.2053 50.2196 50.3761 49.7348 51.4908C49.25 52.6054 48.4394 53.5276 47.287 54.2733C46.1426 55.0111 44.6326 55.388 42.7729 55.388C40.9132 55.388 39.4747 55.0111 38.3144 54.2573L38.3303 54.2493Z" fill="#F3E7D3"/>
<path d="M53.0488 30.7536H59.7644V55.0671H53.0488V30.7536ZM55.6953 50.376H60.273C60.575 50.376 60.7975 50.3118 60.9644 50.1835C61.1234 50.0552 61.2426 49.8788 61.3062 49.6623C61.3777 49.4458 61.4095 49.1731 61.4095 48.8444V36.9602C61.4095 36.6555 61.3698 36.3909 61.2903 36.1583C61.2108 35.9258 61.0837 35.7494 60.9088 35.6211C60.734 35.4928 60.5273 35.4286 60.273 35.4286H55.6953V30.7375H60.273C62.1089 30.7375 63.6109 31.1144 64.7792 31.8682C65.9475 32.622 66.7978 33.5602 67.3303 34.6829C67.8548 35.8055 68.1251 36.9602 68.1251 38.139V47.6576C68.1251 48.8363 67.8628 49.9911 67.3303 51.1137C66.7978 52.2364 65.9554 53.1746 64.7792 53.9284C63.6109 54.6822 62.1089 55.0591 60.273 55.0591H55.6953V50.368V50.376Z" fill="#F3E7D3"/>
<path d="M77.5906 30.7536V55.0671H70.875V30.7536H77.5906Z" fill="#F3E7D3"/>
<path d="M83.4636 54.2493C82.3032 53.4955 81.4688 52.5573 80.9522 51.4346C80.4356 50.312 80.1733 49.1572 80.1733 47.9784V37.7302C80.1733 36.5514 80.4356 35.3967 80.9522 34.274C81.4688 33.1514 82.3032 32.2131 83.4636 31.4593C84.6239 30.7056 86.1101 30.3287 87.9221 30.3287C89.7341 30.3287 91.2838 30.6975 92.4362 31.4433C93.5806 32.1811 94.3992 33.1113 94.884 34.2259C95.3688 35.3405 95.6072 36.5033 95.6072 37.7382V47.9865C95.6072 49.2134 95.3688 50.3841 94.884 51.4988C94.3992 52.6134 93.5886 53.5356 92.4362 54.2814C91.2918 55.0191 89.7818 55.396 87.9221 55.396C86.0624 55.396 84.6239 55.0191 83.4636 54.2653V54.2493ZM88.6612 49.4619C88.8122 49.1973 88.8837 48.8204 88.8837 48.3313V37.3854C88.8837 36.8962 88.8122 36.5193 88.6612 36.2547C88.5102 35.9901 88.2558 35.8537 87.8903 35.8537C87.5247 35.8537 87.2624 35.9901 87.1194 36.2547C86.9684 36.5193 86.8968 36.8962 86.8968 37.3854V48.3313C86.8968 48.8204 86.9684 49.1973 87.1194 49.4619C87.2704 49.7266 87.5247 49.8629 87.8903 49.8629C88.2558 49.8629 88.5181 49.7266 88.6612 49.4619Z" fill="#F3E7D3"/>
<path d="M105.605 38.2194C106.146 38.7326 107.02 39.3981 108.236 40.2321C109.523 41.1383 110.564 41.9321 111.367 42.6138C112.17 43.2954 112.861 44.1374 113.449 45.1317C114.037 46.1261 114.323 47.2487 114.323 48.4997C114.323 50.1195 113.958 51.4507 113.219 52.4931C112.488 53.5356 111.542 54.2974 110.397 54.7705C109.253 55.2436 108.045 55.4842 106.781 55.4842C104.691 55.4842 103.014 55.1153 101.735 54.3696C100.463 53.6318 99.5492 52.5974 99.0008 51.2743C98.4525 49.9511 98.1743 48.3794 98.1743 46.5511H104.85C104.85 47.8902 104.985 48.8926 105.248 49.5582C105.51 50.2238 105.875 50.5445 106.336 50.5445C106.591 50.5445 106.821 50.4082 107.044 50.1275C107.266 49.8469 107.369 49.4539 107.369 48.9487C107.369 48.1869 107.187 47.5134 106.821 46.936C106.456 46.3586 105.995 45.8534 105.446 45.4284C104.898 45.0034 104.135 44.4742 103.173 43.8487C102.092 43.151 101.234 42.5496 100.59 42.0284C99.9466 41.5071 99.3982 40.8656 98.9373 40.1038C98.4763 39.342 98.2458 38.4359 98.2458 37.3934C98.2458 35.958 98.5478 34.707 99.1598 33.6405C99.7717 32.574 100.63 31.7561 101.743 31.1947C102.855 30.6254 104.159 30.3447 105.653 30.3447C107.489 30.3447 109.03 30.7056 110.27 31.4353C111.51 32.165 112.432 33.1353 113.044 34.3382C113.648 35.541 113.958 36.8642 113.958 38.2996H107.242C107.218 37.3533 107.083 36.6236 106.845 36.1104C106.607 35.6052 106.289 35.3486 105.899 35.3486C105.557 35.3486 105.287 35.4689 105.089 35.6934C104.89 35.9259 104.795 36.2307 104.795 36.5995C104.795 37.1769 105.065 37.7222 105.605 38.2354V38.2194Z" fill="#F3E7D3"/>
</svg>
