<svg width="85" height="162" viewBox="0 0 85 162" fill="none" xmlns="http://www.w3.org/2000/svg">
	<path
		d="M48.4935 159.449L48.4934 159.449C47.4777 157.517 45.6019 156.11 43.3753 155.782L43.3753 155.708L42.3753 155.708C39.7172 155.708 37.4219 157.232 36.2573 159.448C35.7515 160.41 34.7506 160.999 33.6751 160.999L4.05109 160.999C2.4529 160.999 1.11642 159.665 1.11642 157.968L1.11642 4.03092C1.11642 2.33401 2.45291 0.999996 4.0511 0.999996L33.5284 0.999998C34.6326 0.999998 35.6528 1.62759 36.1346 2.63625C37.2556 4.98316 39.6194 6.62025 42.3754 6.62025C45.1313 6.62026 47.4951 4.98316 48.6161 2.63626C49.0979 1.62772 50.1189 0.999998 51.2223 0.999998L80.6996 1C82.2978 1 83.6343 2.33402 83.6343 4.03092L83.6343 157.969C83.6343 159.666 82.2978 161 80.6996 161L51.0756 161C49.9989 161 48.9992 160.412 48.4935 159.449Z"
		fill="black" stroke="#F3E7D3" stroke-width="2" />
</svg>